<?xml version="1.0" standalone="no"?>
<!DOCTYPE svg PUBLIC "-//W3C//DTD SVG 20010904//EN"
 "http://www.w3.org/TR/2001/REC-SVG-20010904/DTD/svg10.dtd">
<svg version="1.0" xmlns="http://www.w3.org/2000/svg"
 width="627.000000pt" height="627.000000pt" viewBox="0 0 627.000000 627.000000"
 preserveAspectRatio="xMidYMid meet">
<metadata>
Created by potrace 1.14, written by Peter Selinger 2001-2017
</metadata>
<g transform="translate(0.000000,627.000000) scale(0.100000,-0.100000)"
fill="#000000" stroke="none">
<path d="M3074 3968 c-38 -40 -175 -185 -304 -323 -129 -137 -268 -286 -310
-330 -41 -44 -111 -118 -155 -165 -44 -46 -114 -121 -156 -165 -42 -44 -154
-163 -250 -265 -95 -102 -176 -185 -180 -185 -4 0 -116 97 -249 215 -133 118
-245 216 -249 218 -4 1 -184 -186 -401 -415 -217 -230 -440 -465 -496 -523
-55 -58 -151 -158 -212 -223 l-112 -119 0 -74 0 -74 458 407 c251 224 518 461
592 527 74 66 142 126 151 133 14 12 24 7 71 -36 l55 -51 -60 -189 -59 -190
45 -64 c25 -36 55 -79 67 -95 l23 -30 -103 -231 c-57 -127 -101 -234 -98 -236
7 -7 191 15 199 23 3 4 131 195 283 424 152 230 281 420 285 423 5 2 80 7 167
10 88 4 169 8 181 11 18 3 28 23 57 117 19 61 67 213 106 337 38 124 78 235
88 247 37 47 577 631 580 628 2 -2 42 -248 88 -546 l83 -542 35 -29 c19 -16
108 -88 198 -160 432 -348 422 -339 401 -358 -10 -10 -110 -86 -223 -170 -113
-84 -208 -156 -213 -160 -10 -9 -228 -503 -223 -507 3 -4 69 43 301 212 39 28
97 70 130 93 l60 41 428 53 c235 29 433 55 438 59 5 3 55 136 110 295 55 159
103 292 107 296 6 6 186 -145 424 -357 l56 -50 -13 -170 c-20 -249 -26 -220
60 -312 l75 -81 0 -118 0 -119 214 214 c138 138 219 212 228 208 8 -3 104 -64
212 -136 109 -72 200 -131 202 -131 2 0 4 51 4 113 l0 112 -225 225 -225 225
-58 -58 c-32 -31 -60 -57 -64 -57 -4 0 -208 180 -455 400 l-448 399 -136 1
-136 0 -58 63 c-33 34 -97 103 -144 152 -253 267 -301 317 -371 390 -42 44
-156 166 -255 270 -244 259 -545 575 -549 575 -1 0 -34 -33 -72 -72z"/>
</g>
</svg>
